<svg width="25" height="25" viewBox="0 0 25 25" fill="none" xmlns="http://www.w3.org/2000/svg">
<path d="M12.5 25C9.16113 25 6.02212 23.6998 3.66113 21.3389C1.30024 18.9779 0 15.8389 0 12.5C0 9.16113 1.30024 6.02212 3.66113 3.66113C6.02212 1.30024 9.16113 0 12.5 0C15.8389 0 18.9779 1.30024 21.3389 3.66113C23.6998 6.02212 25 9.16113 25 12.5C25 15.8389 23.6998 18.9779 21.3389 21.3389C18.9779 23.6998 15.8389 25 12.5 25Z" fill="#DCF4FF"/>
<path d="M21.3389 3.66113C18.9779 1.30024 15.8389 0 12.5 0V25C15.8389 25 18.9779 23.6998 21.3389 21.3389C23.6998 18.9779 25 15.8389 25 12.5C25 9.16113 23.6998 6.02212 21.3389 3.66113Z" fill="#CCEFFF"/>
<path d="M3.90488 21.5757C6.09785 19.0581 7.29551 15.8712 7.29551 12.5004C7.29551 9.1292 6.09775 5.94224 3.90444 3.42456C3.82251 3.50225 3.74131 3.58096 3.66113 3.66108C1.30024 6.02207 0 9.16108 0 12.5C0 15.8388 1.30024 18.9778 3.66113 21.3388C3.74146 21.4191 3.8228 21.4979 3.90488 21.5757Z" fill="#506D20"/>
<path d="M21.3389 3.66116C21.332 3.65422 21.3249 3.64763 21.3179 3.64075C19.2447 6.12273 18.1152 9.22224 18.1152 12.4952C18.1152 15.7709 19.2463 18.8722 21.3223 21.355C21.3278 21.3496 21.3334 21.3444 21.3388 21.3389C23.6998 18.9779 25 15.8389 25 12.5C25 9.16116 23.6998 6.02214 21.3389 3.66116Z" fill="#A2E13A"/>
<path d="M16.6503 12.4952C16.6503 8.86035 17.9101 5.41904 20.2215 2.66851C18.0281 0.93877 15.3363 0 12.4999 0C9.76863 0 7.17136 0.870557 5.02405 2.47959C7.44089 5.26133 8.76033 8.77944 8.76033 12.5005C8.76033 16.2211 7.44099 19.7392 5.02454 22.5208C7.17175 24.1296 9.76887 25 12.4999 25C15.3383 25 18.032 24.0598 20.2263 22.3277C17.9118 19.5763 16.6503 16.133 16.6503 12.4952Z" fill="#506D20"/>
</svg>
