<svg width="30" height="30" viewBox="0 0 30 30" xmlns="http://www.w3.org/2000/svg">
<path d="M14.992 0.00781971C6.71258 0.00957648 0.00223691 6.72279 0.00399368 15.0022C0.00457927 17.869 0.827276 20.6756 2.37441 23.0892L0.0420571 29.1406C-0.0821467 29.4625 0.078071 29.8241 0.399912 29.9483C0.471881 29.976 0.548301 29.9903 0.625423 29.9901C0.696982 29.9905 0.768014 29.9782 0.835299 29.9539L7.08162 27.724C14.1094 32.101 23.3548 29.952 27.7318 22.9242C32.1087 15.8963 29.9598 6.65094 22.932 2.274C20.5497 0.790228 17.7986 0.00506743 14.992 0.00781971Z"/>
<path d="M22.1389 17.5612C22.1389 17.5612 20.6086 16.8116 19.6504 16.3119C18.5661 15.7535 17.2918 16.7991 16.6922 17.3938C15.7589 17.0353 14.9065 16.4942 14.1849 15.8022C13.4928 15.0807 12.9517 14.2283 12.5933 13.295C13.188 12.6941 14.2311 11.4211 13.6752 10.3367C13.1817 9.37731 12.426 7.84821 12.426 7.84698C12.3199 7.63652 12.1045 7.50365 11.8688 7.50342H10.6195C8.80024 7.81765 7.47744 9.40507 7.49642 11.2512C7.49642 13.2125 9.84376 16.9803 11.4266 18.5644C13.0095 20.1484 16.7772 22.4945 18.7398 22.4945C20.5859 22.5135 22.1733 21.1907 22.4875 19.3714V18.1222C22.4877 17.884 22.3526 17.6664 22.1389 17.5612Z" fill="#B0C099"/>
</svg>
